<svg xmlns="http://www.w3.org/2000/svg" viewBox="0 0 24 24" width="20" height="20" fill="currentColor"
  aria-hidden="true">
  <path fill-rule="evenodd"
    d="M12 .5a12 12 0 0 0-3.79 23.4c.6.11.82-.26.82-.58v-2.02c-3.34.73-4.04-1.61-4.04-1.61-.55-1.4-1.34-1.77-1.34-1.77-1.09-.75.08-.74.08-.74 1.2.08 1.83 1.24 1.83 1.24 1.07 1.83 2.8 1.3 3.48.99.11-.78.42-1.3.76-1.6-2.66-.3-5.47-1.33-5.47-5.92 0-1.31.47-2.38 1.24-3.22-.13-.3-.54-1.52.12-3.17 0 0 1.01-.32 3.3 1.23a11.4 11.4 0 0 1 6 0c2.28-1.55 3.3-1.23 3.3-1.23.66 1.65.25 2.87.12 3.17.77.84 1.24 1.91 1.24 3.22 0 4.6-2.81 5.61-5.48 5.91.43.37.81 1.1.81 2.22v3.29c0 .32.21.7.82.58A12 12 0 0 0 12 .5Z"
    clip-rule="evenodd" />
</svg>